<svg id="visual" viewBox="0 0 600 900" width="600" height="900" xmlns="http://www.w3.org/2000/svg" xmlns:xlink="http://www.w3.org/1999/xlink" version="1.1"><rect x="0" y="0" width="600" height="900" fill="#FAFAFA"></rect><path d="M0 226L25 223.7C50 221.3 100 216.7 150 217.5C200 218.3 250 224.7 300 223.5C350 222.3 400 213.7 450 211.3C500 209 550 213 575 215L600 217L600 0L575 0C550 0 500 0 450 0C400 0 350 0 300 0C250 0 200 0 150 0C100 0 50 0 25 0L0 0Z" fill="#E05215" stroke-linecap="round" stroke-linejoin="miter"></path></svg>