<svg xmlns="http://www.w3.org/2000/svg" version="1.1" xmlns:xlink="http://www.w3.org/1999/xlink" xmlns:svgjs="http://svgjs.dev/svgjs" width="1500" height="1500" viewBox="0 0 1500 1500"><rect width="1500" height="1500" fill="#000000"></rect><g transform="matrix(0.6666666666666666,0,0,0.6666666666666666,249.58373461163313,577.642719714362)"><svg viewBox="0 0 396 137" data-background-color="#efe9dd" preserveAspectRatio="xMidYMid meet" height="518" width="1500" xmlns="http://www.w3.org/2000/svg" xmlns:xlink="http://www.w3.org/1999/xlink"><g id="tight-bounds" transform="matrix(1,0,0,1,0.25484653667768953,-0.12273919170149838)"><svg viewBox="0 0 395.52 137.24547838340303" height="137.24547838340303" width="395.52"><g><svg viewBox="0 0 696.0762810585894 241.53853707834296" height="137.24547838340303" width="395.52"><g><rect width="9.000722016952631" height="188.08906376657674" x="267.9934595208184" y="26.724736655883106" fill="#ffffff" opacity="1" stroke-width="0" stroke="transparent" fill-opacity="1" class="rect-yte-0" data-fill-palette-color="primary" rx="1%" id="yte-0" data-palette-color="#2d3142"></rect></g><g transform="matrix(1,0,0,1,300.55628105858943,27.19261989908354)"><svg viewBox="0 0 395.52 187.15329728017588" height="187.15329728017588" width="395.52"><g id="textblocktransform"><svg viewBox="0 0 395.52 187.15329728017588" height="187.15329728017588" width="395.52" id="textblock"><g><svg viewBox="0 0 395.52 99.80726342710994" height="99.80726342710994" width="395.52"><g transform="matrix(1,0,0,1,0,0)"><svg width="395.52" viewBox="1.5 -36 177.43 44.4" height="99.80726342710994" data-palette-color="#2d3142"><g class="wordmark-text-0" data-fill-palette-color="primary" id="text-0"><path d="M19.35-7.05L6.55-7.05 6.55-10.95 19.35-10.95 19.35-7.05ZM10.1-35.25L14.6-35.25 6 0 1.5 0 10.1-35.25ZM10.2-35.25L14.7-35.25 23.3 0 18.85 0 10.2-35.25ZM32.85 0L28.3 0 28.3-36 32.85-36 32.85 0ZM56.59-11.25L39.55-11.25 39.55-14.5 56.59-14.5 56.59-11.25ZM47.55 0.8L47.3 0.8 47.3-3.15 47.55-3.15 47.55 0.8ZM42.64-8.95L38.09-8.95 38.09-16.3 42.64-16.3 42.64-8.95ZM56.59-14.5L52.05-14.5 52.05-17.1 56.59-17.1 56.59-14.5ZM56.59-17.1L56.59-17.1 52.05-17.1Q52.05-19.3 50.72-20.7 49.39-22.1 47.3-22.1L47.3-22.1 47.3-26Q49.99-26 52.07-24.85 54.14-23.7 55.37-21.68 56.59-19.65 56.59-17.1ZM52.24-7.5L52.24-7.5 56.5-6.65Q56.2-4.5 54.95-2.8 53.7-1.1 51.8-0.15 49.89 0.8 47.55 0.8L47.55 0.8 47.55-3.15Q49.34-3.15 50.67-4.23 51.99-5.3 52.24-7.5ZM42.64-16.25L38.09-16.25Q38.09-19.1 39.32-21.28 40.55-23.45 42.62-24.73 44.7-26 47.34-26L47.34-26 47.34-22.1Q45.14-22.1 43.89-20.58 42.64-19.05 42.64-16.25L42.64-16.25ZM38.09-8.95L38.09-8.95 42.64-8.95Q42.64-6.2 43.89-4.67 45.14-3.15 47.34-3.15L47.34-3.15 47.34 0.8Q44.7 0.8 42.62-0.48 40.55-1.75 39.32-3.95 38.09-6.15 38.09-8.95ZM62.69-0.05L67.24-0.05Q67.24 3.9 65.29 6.15 63.34 8.4 59.79 8.4L59.79 8.4 59.34 4.45Q60.39 4.45 61.14 3.9 61.89 3.35 62.29 2.35 62.69 1.35 62.69-0.05L62.69-0.05ZM55.24 6.85L57.04 3.6Q57.54 3.95 58.12 4.2 58.69 4.45 59.34 4.45L59.34 4.45 59.79 8.4Q58.54 8.4 57.39 8 56.24 7.6 55.24 6.85L55.24 6.85ZM67.24 0L62.69 0 62.69-25.25 67.24-25.25 67.24 0ZM65.69-28.65L65.69-28.65Q64.44-28.65 63.59-29.5 62.74-30.35 62.74-31.6L62.74-31.6Q62.74-32.85 63.59-33.73 64.44-34.6 65.69-34.6L65.69-34.6Q66.94-34.6 67.82-33.73 68.69-32.85 68.69-31.6L68.69-31.6Q68.69-30.35 67.82-29.5 66.94-28.65 65.69-28.65ZM91.79 0L87.24 0 87.24-17.2 91.79-17.2 91.79 0ZM81.14 0.75L81.14 0.75 81.49-3Q83.29-3 84.57-3.9 85.84-4.8 86.54-6.55 87.24-8.3 87.24-10.7L87.24-10.7 89.49-10.8Q89.49-7.4 88.39-4.8 87.29-2.2 85.42-0.73 83.54 0.75 81.14 0.75ZM81.49-3L81.14 0.75Q78.89 0.75 77.04-0.3 75.19-1.35 74.09-3.18 72.99-5 72.99-7.25L72.99-7.25 77.29-7.4Q77.29-5.5 78.57-4.25 79.84-3 81.49-3L81.49-3ZM77.29-7.4L72.99-7.25Q72.99-9.6 74.17-11.38 75.34-13.15 77.34-14.2 79.34-15.25 81.89-15.25L81.89-15.25 82.14-11.75Q80.04-11.75 78.67-10.53 77.29-9.3 77.29-7.4L77.29-7.4ZM89.59-11.75L82.14-11.75 81.89-15.25 89.59-15.25 89.59-11.75ZM89.49-10.8L87.24-10.7 87.24-17.15 89.49-17.15 89.49-10.8ZM91.79-17.1L91.79-17.1 87.24-17.1Q87.24-19.3 85.92-20.7 84.59-22.1 82.49-22.1L82.49-22.1 82.49-26Q85.19-26 87.27-24.85 89.34-23.7 90.57-21.68 91.79-19.65 91.79-17.1ZM77.79-17.7L77.79-17.7 73.59-18.55Q73.89-20.8 75.12-22.45 76.34-24.1 78.27-25.05 80.19-26 82.54-26L82.54-26 82.54-22.1Q80.69-22.1 79.37-21.03 78.04-19.95 77.79-17.7ZM101.59 0L97.04 0 97.04-25.25 101.59-25.25 101.59 0ZM115.64 0L111.09 0 111.09-17.2 115.64-17.2 115.64 0ZM115.64-17.2L111.09-17.2Q111.09-19.3 109.79-20.63 108.49-21.95 106.44-21.95L106.44-21.95 107.59-26Q109.89-26 111.71-24.85 113.54-23.7 114.59-21.7 115.64-19.7 115.64-17.2L115.64-17.2ZM101.59-17.1L99.59-17.1Q99.59-19.65 100.64-21.68 101.69-23.7 103.49-24.85 105.29-26 107.59-26L107.59-26 106.44-21.95Q104.29-21.95 102.94-20.6 101.59-19.25 101.59-17.1L101.59-17.1ZM138.74-35.25L138.74-25.2 134.19-25.2 134.19-35.25 138.74-35.25ZM138.74 0L134.19 0 134.19-25.25 138.74-25.25 138.74 0ZM124.69-8.05L120.14-8.05 120.14-17.2 124.69-17.2 124.69-8.05ZM124.69-17.2L124.69-17.2 120.14-17.2Q120.14-19.7 121.19-21.7 122.24-23.7 124.06-24.85 125.89-26 128.24-26L128.24-26 129.39-21.95Q127.34-21.95 126.01-20.63 124.69-19.3 124.69-17.2ZM136.19-17.1L136.19-17.1 134.19-17.1Q134.19-19.25 132.84-20.6 131.49-21.95 129.39-21.95L129.39-21.95 128.24-26Q130.49-26 132.31-24.85 134.14-23.7 135.16-21.68 136.19-19.65 136.19-17.1ZM120.14-8.05L124.69-8.05Q124.69-5.95 126.01-4.63 127.34-3.3 129.39-3.3L129.39-3.3 128.24 0.75Q125.89 0.75 124.06-0.4 122.24-1.55 121.19-3.55 120.14-5.55 120.14-8.05L120.14-8.05ZM134.19-8.2L136.19-8.2Q136.19-5.65 135.16-3.63 134.14-1.6 132.31-0.43 130.49 0.75 128.24 0.75L128.24 0.75 129.39-3.3Q131.49-3.3 132.84-4.65 134.19-6 134.19-8.2L134.19-8.2ZM149.28 0L144.73 0 144.73-25.25 149.28-25.25 149.28 0ZM149.28-16.9L147.23-16.9Q147.23-19.45 148.08-21.48 148.93-23.5 150.41-24.65 151.88-25.8 153.68-25.8L153.68-25.8 153.28-21.55Q151.53-21.55 150.41-20.23 149.28-18.9 149.28-16.9L149.28-16.9ZM157.83-24.2L156.28-20.4Q155.68-20.9 154.86-21.23 154.03-21.55 153.28-21.55L153.28-21.55 153.68-25.8Q154.83-25.8 155.93-25.38 157.03-24.95 157.83-24.2L157.83-24.2ZM178.93-8.95L174.38-8.95 174.38-16.3 178.93-16.3 178.93-8.95ZM164.88-8.95L160.33-8.95 160.33-16.3 164.88-16.3 164.88-8.95ZM169.78-22.05L169.48-22.05 169.48-26 169.78-26 169.78-22.05ZM169.78 0.75L169.48 0.75 169.48-3.2 169.78-3.2 169.78 0.75ZM164.88-16.25L160.33-16.25Q160.33-19.05 161.56-21.25 162.78-23.45 164.86-24.73 166.93-26 169.58-26L169.58-26 169.58-22.05Q167.38-22.05 166.13-20.55 164.88-19.05 164.88-16.25L164.88-16.25ZM178.93-16.25L178.93-16.25 174.38-16.25Q174.38-19.05 173.16-20.55 171.93-22.05 169.68-22.05L169.68-22.05 169.68-26Q172.33-26 174.41-24.73 176.48-23.45 177.71-21.25 178.93-19.05 178.93-16.25ZM160.33-9L160.33-9 164.88-9Q164.88-6.25 166.13-4.73 167.38-3.2 169.58-3.2L169.58-3.2 169.58 0.75Q166.93 0.75 164.86-0.53 162.78-1.8 161.56-4 160.33-6.2 160.33-9ZM174.38-9L178.93-9Q178.93-6.2 177.71-4 176.48-1.8 174.41-0.53 172.33 0.75 169.68 0.75L169.68 0.75 169.68-3.2Q171.93-3.2 173.16-4.73 174.38-6.25 174.38-9L174.38-9Z" fill="#ffffff" data-fill-palette-color="primary"></path></g></svg></g></svg></g><g transform="matrix(1,0,0,1,75.54432,123.36936294792835)"><svg viewBox="0 0 244.43135999999998 63.78393433224754" height="63.78393433224754" width="244.43135999999998"><g transform="matrix(1,0,0,1,0,0)"><svg width="244.43135999999998" viewBox="3 -35.25 138.14 36.05" height="63.78393433224754" data-palette-color="#e05215"><path d="M17.5 0L13.5 0 21.35-35.25 25.3-35.25 17.5 0ZM17.3 0L13.35 0 5.5-35.25 9.5-35.25 17.3 0ZM7.55 0L3 0 3-35.25 7.55-35.25 7.55 0ZM27.85 0L23.3 0 23.3-35.25 27.85-35.25 27.85 0ZM51.1-11.25L34.05-11.25 34.05-14.5 51.1-14.5 51.1-11.25ZM42.05 0.8L41.8 0.8 41.8-3.15 42.05-3.15 42.05 0.8ZM37.15-8.95L32.6-8.95 32.6-16.3 37.15-16.3 37.15-8.95ZM51.1-14.5L46.55-14.5 46.55-17.1 51.1-17.1 51.1-14.5ZM51.1-17.1L51.1-17.1 46.55-17.1Q46.55-19.3 45.22-20.7 43.9-22.1 41.8-22.1L41.8-22.1 41.8-26Q44.5-26 46.57-24.85 48.65-23.7 49.87-21.68 51.1-19.65 51.1-17.1ZM46.75-7.5L46.75-7.5 51-6.65Q50.7-4.5 49.45-2.8 48.2-1.1 46.3-0.15 44.4 0.8 42.05 0.8L42.05 0.8 42.05-3.15Q43.85-3.15 45.17-4.23 46.5-5.3 46.75-7.5ZM37.15-16.25L32.6-16.25Q32.6-19.1 33.82-21.28 35.05-23.45 37.12-24.73 39.2-26 41.85-26L41.85-26 41.85-22.1Q39.65-22.1 38.4-20.58 37.15-19.05 37.15-16.25L37.15-16.25ZM32.6-8.95L32.6-8.95 37.15-8.95Q37.15-6.2 38.4-4.67 39.65-3.15 41.85-3.15L41.85-3.15 41.85 0.8Q39.2 0.8 37.12-0.48 35.05-1.75 33.82-3.95 32.6-6.15 32.6-8.95ZM60.3 0L55.74 0 55.74-25.25 60.3-25.25 60.3 0ZM74.34 0L69.8 0 69.8-17.2 74.34-17.2 74.34 0ZM74.34-17.2L69.8-17.2Q69.8-19.3 68.5-20.63 67.19-21.95 65.14-21.95L65.14-21.95 66.3-26Q68.59-26 70.42-24.85 72.25-23.7 73.3-21.7 74.34-19.7 74.34-17.2L74.34-17.2ZM60.3-17.1L58.3-17.1Q58.3-19.65 59.34-21.68 60.39-23.7 62.2-24.85 63.99-26 66.3-26L66.3-26 65.14-21.95Q62.99-21.95 61.64-20.6 60.3-19.25 60.3-17.1L60.3-17.1ZM97.34-35.25L97.34-25.2 92.79-25.2 92.79-35.25 97.34-35.25ZM97.34 0L92.79 0 92.79-25.25 97.34-25.25 97.34 0ZM83.29-8.05L78.74-8.05 78.74-17.2 83.29-17.2 83.29-8.05ZM83.29-17.2L83.29-17.2 78.74-17.2Q78.74-19.7 79.79-21.7 80.84-23.7 82.67-24.85 84.49-26 86.84-26L86.84-26 87.99-21.95Q85.94-21.95 84.62-20.63 83.29-19.3 83.29-17.2ZM94.79-17.1L94.79-17.1 92.79-17.1Q92.79-19.25 91.44-20.6 90.09-21.95 87.99-21.95L87.99-21.95 86.84-26Q89.09-26 90.92-24.85 92.74-23.7 93.77-21.68 94.79-19.65 94.79-17.1ZM78.74-8.05L83.29-8.05Q83.29-5.95 84.62-4.63 85.94-3.3 87.99-3.3L87.99-3.3 86.84 0.75Q84.49 0.75 82.67-0.4 80.84-1.55 79.79-3.55 78.74-5.55 78.74-8.05L78.74-8.05ZM92.79-8.2L94.79-8.2Q94.79-5.65 93.77-3.63 92.74-1.6 90.92-0.43 89.09 0.75 86.84 0.75L86.84 0.75 87.99-3.3Q90.09-3.3 91.44-4.65 92.79-6 92.79-8.2L92.79-8.2ZM120.49-11.25L103.44-11.25 103.44-14.5 120.49-14.5 120.49-11.25ZM111.44 0.8L111.19 0.8 111.19-3.15 111.44-3.15 111.44 0.8ZM106.54-8.95L101.99-8.95 101.99-16.3 106.54-16.3 106.54-8.95ZM120.49-14.5L115.94-14.5 115.94-17.1 120.49-17.1 120.49-14.5ZM120.49-17.1L120.49-17.1 115.94-17.1Q115.94-19.3 114.62-20.7 113.29-22.1 111.19-22.1L111.19-22.1 111.19-26Q113.89-26 115.97-24.85 118.04-23.7 119.27-21.68 120.49-19.65 120.49-17.1ZM116.14-7.5L116.14-7.5 120.39-6.65Q120.09-4.5 118.84-2.8 117.59-1.1 115.69-0.15 113.79 0.8 111.44 0.8L111.44 0.8 111.44-3.15Q113.24-3.15 114.57-4.23 115.89-5.3 116.14-7.5ZM106.54-16.25L101.99-16.25Q101.99-19.1 103.22-21.28 104.44-23.45 106.52-24.73 108.59-26 111.24-26L111.24-26 111.24-22.1Q109.04-22.1 107.79-20.58 106.54-19.05 106.54-16.25L106.54-16.25ZM101.99-8.95L101.99-8.95 106.54-8.95Q106.54-6.2 107.79-4.67 109.04-3.15 111.24-3.15L111.24-3.15 111.24 0.8Q108.59 0.8 106.52-0.48 104.44-1.75 103.22-3.95 101.99-6.15 101.99-8.95ZM129.94-4.05L124.89-4.05 136.14-21.25 141.14-21.25 129.94-4.05ZM141.14 0L124.89 0 124.89-4.05 141.14-4.05 141.14 0ZM141.14-21.25L124.89-21.25 124.89-25.25 141.14-25.25 141.14-21.25Z" opacity="1" transform="matrix(1,0,0,1,0,0)" fill="#ffffff" class="slogan-text-1" data-fill-palette-color="secondary" id="text-1"></path></svg></g></svg></g></svg></g></svg></g><g><svg viewBox="0 0 244.43135999999998 241.53853707834296" height="241.53853707834296" width="244.43135999999998"><g><svg xmlns="http://www.w3.org/2000/svg" xmlns:xlink="http://www.w3.org/1999/xlink" version="1.1" x="0" y="0" viewBox="0.22299980090499527 0.705 90.664000199095 89.59100000000001" enable-background="new 0 0 91 91" xml:space="preserve" height="241.53853707834296" width="244.43135999999998" class="icon-icon-0" data-fill-palette-color="accent" id="icon-0"><g fill="#e05215" data-fill-palette-color="accent"><path d="M82.332 35.135C82.347 34.758 82.34 32.803 80.894 31.305 80.233 30.621 79.044 29.806 77.114 29.806H67.893C68.379 27.929 68.647 25.98 68.647 23.986 68.647 11.149 58.206 0.705 45.368 0.705 32.532 0.705 22.087 11.149 22.087 23.986 22.087 25.986 22.342 27.937 22.824 29.806H14.057C12.087 29.806 10.877 30.649 10.211 31.356 8.711 32.946 8.751 35.04 8.771 35.296V75.998H2.738A2.515 2.515 0 0 0 0.223 78.514V85.483A2.52 2.52 0 0 0 1.233 87.499C1.859 87.966 5.128 90.296 8.07 90.296H83.034C85.982 90.296 89.249 87.966 89.876 87.499A2.52 2.52 0 0 0 90.887 85.483V78.514A2.517 2.517 0 0 0 88.371 75.998H82.334zM14.057 34.838H23.924C24.199 34.838 24.462 34.783 24.709 34.699A23.4 23.4 0 0 0 29.889 41.366C26.296 43.919 23.328 47.34 21.358 51.287L21.211 51.582 21.144 51.906C21.075 52.242 19.448 60.242 19.448 65.564A2.515 2.515 0 1 0 24.478 65.564C24.478 61.316 25.709 54.767 26.008 53.24 27.886 49.617 30.804 46.556 34.319 44.479A23.3 23.3 0 0 0 39.504 46.523 2.52 2.52 0 0 0 42.572 44.72 2.513 2.513 0 0 0 40.769 41.654C32.732 39.566 27.12 32.303 27.12 23.986 27.12 13.923 35.308 5.736 45.37 5.736 55.433 5.736 63.62 13.923 63.62 23.986A18.28 18.28 0 0 1 55.183 39.378C55.162 39.39 55.142 39.406 55.121 39.419A18.5 18.5 0 0 1 52.782 40.672 2.514 2.514 0 1 0 54.826 45.267 25 25 0 0 0 56.42 44.483 21.9 21.9 0 0 1 65.209 54.214C65.94 56.446 67.627 62.464 67.265 65.458A2.518 2.518 0 0 0 69.767 68.277 2.517 2.517 0 0 0 72.26 66.06C72.828 61.347 70.239 53.394 69.942 52.501L69.85 52.265C67.881 47.89 64.743 44.129 60.845 41.367A23.4 23.4 0 0 0 65.975 34.79C66.127 34.816 66.283 34.837 66.44 34.837H77.116C77.189 34.837 77.249 34.845 77.276 34.839A0.8 0.8 0 0 1 77.303 35.042V75.998H55.047A2.52 2.52 0 0 0 52.702 77.602L52.49 78.145H38.085L37.932 77.7A2.515 2.515 0 0 0 35.551 75.999H13.801L13.797 35.152C13.797 35.15 13.828 34.88 13.792 34.868 13.792 34.867 13.867 34.838 14.057 34.838M85.854 84.133C84.87 84.719 83.697 85.264 83.034 85.264H8.07C7.408 85.264 6.236 84.719 5.254 84.133V81.028H33.753L33.905 81.475A2.52 2.52 0 0 0 36.286 83.176H54.21A2.52 2.52 0 0 0 56.555 81.574L56.767 81.027H85.856V84.133z" fill="#ffffff" data-fill-palette-color="accent"></path><path d="M52.181 30.535A2.516 2.516 0 1 0 49.249 26.445C45.385 29.219 41.956 26.795 41.563 26.5A2.52 2.52 0 0 0 38.045 26.934 2.517 2.517 0 0 0 38.469 30.467C39.816 31.527 42.4 32.772 45.453 32.772 47.557 32.772 49.882 32.181 52.181 30.535" fill="#ffffff" data-fill-palette-color="accent"></path><path d="M39.658 22.375C41.247 22.375 42.539 21.083 42.539 19.495S41.247 16.613 39.658 16.613 36.776 17.907 36.776 19.495 38.07 22.375 39.658 22.375" fill="#ffffff" data-fill-palette-color="accent"></path><path d="M51.084 22.375A2.881 2.881 0 0 0 51.084 16.613C49.495 16.613 48.201 17.907 48.201 19.495S49.495 22.375 51.084 22.375" fill="#ffffff" data-fill-palette-color="accent"></path><path d="M43.819 72.367A2.506 2.506 0 0 0 47.338 72.369L53.418 66.424A2.52 2.52 0 0 0 54.046 63.83L48.172 46.205A2.51 2.51 0 0 0 45.813 44.484C44.796 44.478 43.776 45.145 43.418 46.156L37.137 63.781A2.52 2.52 0 0 0 37.746 66.424zM45.706 54.719L48.774 63.93 45.581 67.053 42.416 63.955z" fill="#ffffff" data-fill-palette-color="accent"></path><path d="M29.789 63.115C29.677 63.826 29.582 65.539 29.81 70.412A2.514 2.514 0 0 0 32.32 72.812L32.44 72.81A2.52 2.52 0 0 0 34.835 70.179C34.722 67.757 34.659 64.771 34.74 64.015 34.928 63.357 35.073 62.097 33.083 57.117A2.52 2.52 0 0 0 29.814 55.713 2.517 2.517 0 0 0 28.412 58.983C29.057 60.602 29.666 62.439 29.789 63.115" fill="#ffffff" data-fill-palette-color="accent"></path><path d="M56.741 70.18A2.52 2.52 0 0 0 59.137 72.811L59.256 72.813A2.52 2.52 0 0 0 61.768 70.413C61.995 65.548 61.901 63.833 61.789 63.118 61.909 62.444 62.519 60.606 63.169 58.983A2.52 2.52 0 0 0 61.762 55.713 2.52 2.52 0 0 0 58.495 57.117C56.501 62.111 56.652 63.365 56.839 64.015 56.918 64.773 56.856 67.758 56.741 70.18" fill="#ffffff" data-fill-palette-color="accent"></path></g></svg></g></svg></g></svg></g><defs></defs></svg><rect width="395.52" height="137.24547838340303" fill="none" stroke="none" visibility="hidden"></rect></g></svg></g></svg>